<?xml version="1.0" encoding="utf-8"?>
<!-- Generator: Adobe Illustrator 27.9.1, SVG Export Plug-In . SVG Version: 6.00 Build 0)  -->
<svg version="1.1" id="Layer_1" xmlns="http://www.w3.org/2000/svg" xmlns:xlink="http://www.w3.org/1999/xlink" x="0px" y="0px"
	 viewBox="0 0 1920 1080" style="enable-background:new 0 0 1920 1080;" xml:space="preserve">
<style type="text/css">
	.st0{fill:#FFFFFF;}
</style>
<g>
	<g>
		<path class="st0" d="M1268,659c-208.6,0-417.3,0-626,0c0-98.6,0-197.2,0-296c208.6,0,417.3,0,626,0
			C1268,461.6,1268,560.3,1268,659z M1154.7,439.2c0-7,0-14,0-21c-6.4,0-12.5,0-19,0c0,6.8,0,13.5,0,20.9c6.6,0,12.8,0,19.1,0
			c0.2,1.5,0.7,2.9,0.7,4.4c0.1,37.7,0,75.4,0.2,113.1c0,4.7-1.7,5.9-6.1,5.9c-14.3-0.1-14.5,0.1-14.3,14.4c0.1,5.3-1.9,6.4-6.7,6.4
			c-116-0.1-232-0.1-348,0c-5.1,0-6.8-1.5-6.5-6.5c0.3-4.5,1.3-10.9-1.1-13.2c-2.6-2.4-8.8-1.3-13.4-1c-4.3,0.3-5.6-1.1-5.5-5.3
			c0.2-4.5,1.3-10.7-1-12.9c-2.6-2.4-8.7-1.5-13.3-1.4c-4.3,0.1-5.7-1.2-5.7-5.7c0.2-23.7,0.1-47.4,0.1-71c0-2,0-3.9,0-6.1
			c-6.9,0-13.2,0-19.5,0c0,34.5,0,68.6,0,103.1c6.6,0,12.9,0,19.8,0c0,6.8,0,13.2,0,20c6.9,0,13.2,0,20.1,0c0,7.2,0,13.9,0,21
			c7,0,13.2,0,20,0c0,7,0,13.6,0,20.3c120.4,0,240.3,0,360.7,0c0-6.9,0-13.6,0-20.5c6.8,0,13,0,20,0c0-7.1,0-13.8,0-21
			c7,0,13.2,0,20.1,0c0-6.8,0-13.2,0-20c6.9,0,13.2,0,19.7,0c0-34.5,0-68.6,0-103.4c-6.6,0-13,0-20,0c0-7.2,0-13.8,0-20.3
			C1167.9,439.2,1161.3,439.2,1154.7,439.2z M774.5,437.7c0-4.5,0-8.5,0-12.4c0-7.2,0-7.2,7.4-7.2c115.5,0,230.9,0,346.4,0
			c2.1,0,4.2,0,6.6,0c0-7.1,0-13.7,0-20.3c-120.2,0-240,0-360.4,0c0,6.7,0,12.9,0,19.9c-6.9,0-13.2,0-19.5,0c0,7.1,0,13.5,0,20.1
			C761.5,437.7,767.6,437.7,774.5,437.7z M1115.9,499.9c0-11.8-0.1-23.7,0.1-35.5c0.1-4.4-1-6.6-5.8-6c-3.1,0.4-6.4,0.4-9.5,0
			c-4.9-0.6-5.9,1.7-5.8,6c0.2,10.2,0,20.3,0.1,30.5c0.1,3.6-0.9,5.1-4.8,5c-9.8-0.2-19.7-0.3-29.5,0c-4.1,0.1-5.1-1.5-5.1-5.2
			c0.2-10.2-0.1-20.3,0.1-30.5c0.1-4.1-0.9-6.3-5.5-5.8c-3.6,0.4-7.3,0.2-11,0c-3.1-0.1-4.6,0.8-4.5,4.2c0.1,11.3,0.1,22.7,0,34
			c0,3.2,1.5,4,4.2,4c4,0,8,0.1,12,0c2.7,0,3.9,1.1,3.8,3.9c-0.1,3.8,0.3,7.7,0,11.5c-0.3,4.3,1.5,5.4,5.5,5.3c10-0.2,20,0,30-0.2
			c3.4-0.1,4.9,0.8,4.7,4.5c-0.2,3.8-0.2,7.7,0,11.5c0.2,3.3-1.1,4.4-4.3,4.4c-6.7-0.1-13.3,0-20,0c-17,0-16.9,0-15.9,17.3
			c0.2,2.9,1.2,4.2,4.1,4.2c11-0.1,22-0.1,33,0c3.1,0,4.1-1.4,4-4.3c-0.1-3.8,0.1-7.7-0.1-11.5c-0.2-3.7,0.9-5.6,5-5.2
			c3.3,0.3,6.7-0.2,10,0.1c4.1,0.4,5.2-1.4,5.1-5.2C1115.8,524.6,1115.9,512.3,1115.9,499.9z M1015.4,521.1c0-12.3-0.2-24.7,0.1-37
			c0.1-4-1.4-5.4-5.2-5.1c-3.3,0.2-6.7-0.2-10,0.1c-4,0.3-5.1-1.5-5.1-5.3c0-5,1-12.2-1.7-14.4c-3.1-2.6-9.8-0.7-15-0.9
			c-3.1-0.1-4.1,1.3-4,4.2c0.1,3.5-0.2,7,0.1,10.5c0.4,4.5-1,6.5-5.7,6c-3.3-0.3-6.7,0-10-0.1c-3-0.1-4.5,0.8-4.5,4.3
			c0.1,25.2,0.1,50.3,0,75.5c0,3,1,4.3,4,4.3c4.3-0.1,8.7-0.1,13,0c2.8,0,3.9-1.1,3.8-3.9c-0.1-4.2,0.2-8.3-0.1-12.5
			c-0.2-3.6,1.2-4.7,4.6-4.5c3.3,0.2,6.7,0.3,10,0c3.6-0.3,5.2,0.9,4.9,4.7c-0.3,4.1-0.3,8.4,0.1,12.5c0.1,1.3,2.1,3.3,3.4,3.5
			c4.1,0.5,8.3,0,12.5,0.3c3.8,0.2,4.8-1.4,4.8-5C1015.3,545.7,1015.4,533.4,1015.4,521.1z M835,521.3c5.9,0,10.9-0.1,15.8,0
			c2.9,0.1,4.3-0.8,4.2-3.9c-0.1-11.5-0.1-23,0-34.5c0-2.8-1.1-4-3.8-3.9c-4.2,0.1-8.3-0.1-12.5,0c-2.7,0-3.9-1.1-3.8-3.9
			c0.1-4.2-0.1-8.3,0-12.5c0.1-2.9-0.9-4.2-4-4.2c-11,0.1-22,0.1-33,0c-3,0-4.2,1.2-4.1,4.1c0.1,3.8,0,7.7,0,11.5
			c0,27.6,0.1,55.3-0.1,82.9c0,4.9,1.5,6.6,6.3,6.1c3.6-0.3,7.3-0.2,11-0.1c2.7,0.1,3.9-1,3.9-3.8c-0.1-4.3,0.1-8.7,0-13
			c-0.1-3,1-4.3,4-4.1c3.2,0.2,6.3,0,9.5,0c6.5,0,6.5,0,6.5-6.7C835,530.9,835,526.5,835,521.3z M874.9,458.5
			c-0.2,1.6-0.4,2.4-0.4,3.2c0,32.5,0,65-0.1,97.4c0,3.8,1.9,3.9,4.7,3.9c13.3-0.1,26.6,0,40-0.1c5.1,0,10.2-0.4,15.3-0.7
			c0.3-5.4,0.5-10.8,0.9-16.2c0.3-3.4-1-4.7-4.5-4.6c-9.7,0.2-19.3,0.1-29,0.1c-6.6,0-6.6,0-6.6-6.4c0-16,0-32,0-48
			c0-8.2-0.1-16.3,0-24.5c0-2.9-0.8-4.3-4-4.2C885.9,458.6,880.6,458.5,874.9,458.5z M734.9,438.1c0,7.2,0,13.6,0,20.1
			c6.6,0,12.8,0,19,0c0-6.8,0-13.2,0-20.1c-4.7,0-9,0-13.3,0C738.8,438.1,737,438.1,734.9,438.1z"/>
		<path d="M1154.7,439.2c6.6,0,13.3,0,20.5,0c0,6.5,0,13.1,0,20.3c7,0,13.4,0,20,0c0,34.8,0,68.9,0,103.4c-6.5,0-12.7,0-19.7,0
			c0,6.8,0,13.2,0,20c-6.9,0-13.2,0-20.1,0c0,7.1,0,13.9,0,21c-7,0-13.2,0-20,0c0,7,0,13.6,0,20.5c-120.4,0-240.3,0-360.7,0
			c0-6.7,0-13.3,0-20.3c-6.8,0-13,0-20,0c0-7.1,0-13.8,0-21c-7,0-13.2,0-20.1,0c0-6.8,0-13.2,0-20c-6.9,0-13.2,0-19.8,0
			c0-34.5,0-68.6,0-103.1c6.3,0,12.7,0,19.5,0c0,2.2,0,4.2,0,6.1c0,23.7,0.1,47.4-0.1,71c0,4.5,1.4,5.8,5.7,5.7
			c4.6-0.1,10.6-1,13.3,1.4c2.3,2.2,1.2,8.5,1,12.9c-0.1,4.2,1.2,5.6,5.5,5.3c4.6-0.3,10.8-1.4,13.4,1c2.4,2.3,1.4,8.7,1.1,13.2
			c-0.3,5,1.4,6.5,6.5,6.5c116-0.1,232-0.1,348,0c4.8,0,6.8-1.1,6.7-6.4c-0.2-14.4,0-14.5,14.3-14.4c4.5,0,6.1-1.2,6.1-5.9
			c-0.2-37.7-0.2-75.4-0.2-113.1c0-1.5-0.5-2.9-0.7-4.4L1154.7,439.2z"/>
		<path d="M774.5,437.7c-6.9,0-13,0-19.5,0c0-6.5,0-12.9,0-20.1c6.3,0,12.7,0,19.5,0c0-7,0-13.2,0-19.9c120.3,0,240.2,0,360.4,0
			c0,6.6,0,13.2,0,20.3c-2.3,0-4.4,0-6.6,0c-115.5,0-230.9,0-346.4,0c-7.4,0-7.4,0-7.4,7.2C774.5,429.2,774.5,433.2,774.5,437.7z"/>
		<path d="M1115.9,499.9c0,12.3-0.1,24.7,0.1,37c0,3.8-1,5.6-5.1,5.2c-3.3-0.3-6.7,0.2-10-0.1c-4.1-0.4-5.2,1.5-5,5.2
			c0.2,3.8-0.1,7.7,0.1,11.5c0.1,2.9-0.9,4.3-4,4.3c-11-0.1-22-0.1-33,0c-3,0-4-1.3-4.1-4.2c-1-17.3-1.1-17.3,15.9-17.3
			c6.7,0,13.3-0.1,20,0c3.2,0.1,4.5-1.1,4.3-4.4c-0.2-3.8-0.2-7.7,0-11.5c0.2-3.6-1.4-4.5-4.7-4.5c-10,0.2-20-0.1-30,0.2
			c-4,0.1-5.8-1-5.5-5.3c0.3-3.8-0.1-7.7,0-11.5c0.1-2.8-1.1-3.9-3.8-3.9c-4,0-8-0.1-12,0c-2.8,0-4.3-0.8-4.2-4
			c0.1-11.3,0.1-22.7,0-34c0-3.4,1.4-4.3,4.5-4.2c3.7,0.2,7.4,0.3,11,0c4.7-0.5,5.6,1.7,5.5,5.8c-0.2,10.2,0.1,20.3-0.1,30.5
			c-0.1,3.8,1,5.3,5.1,5.2c9.8-0.3,19.7-0.2,29.5,0c3.8,0.1,4.8-1.4,4.8-5c-0.2-10.2,0.1-20.3-0.1-30.5c-0.1-4.4,0.9-6.6,5.8-6
			c3.1,0.4,6.4,0.4,9.5,0c4.8-0.6,5.9,1.6,5.8,6C1115.8,476.2,1115.9,488.1,1115.9,499.9z"/>
		<path d="M1015.4,521.1c0,12.3-0.1,24.7,0.1,37c0.1,3.6-1,5.2-4.8,5c-4.2-0.2-8.4,0.2-12.5-0.3c-1.3-0.1-3.2-2.2-3.4-3.5
			c-0.4-4.1-0.4-8.3-0.1-12.5c0.3-3.9-1.3-5-4.9-4.7c-3.3,0.3-6.7,0.2-10,0c-3.4-0.2-4.9,0.9-4.6,4.5c0.3,4.1,0,8.3,0.1,12.5
			c0.1,2.8-1,4-3.8,3.9c-4.3-0.1-8.7-0.1-13,0c-3,0-4-1.3-4-4.3c0.1-25.2,0.1-50.3,0-75.5c0-3.4,1.4-4.4,4.5-4.3
			c3.3,0.1,6.7-0.2,10,0.1c4.7,0.5,6.2-1.5,5.7-6c-0.3-3.5,0-7-0.1-10.5c-0.1-2.9,0.8-4.3,4-4.2c5.1,0.2,11.9-1.7,15,0.9
			c2.7,2.2,1.7,9.4,1.7,14.4c0,3.8,1.1,5.6,5.1,5.3c3.3-0.2,6.7,0.1,10-0.1c3.8-0.2,5.2,1.1,5.2,5.1
			C1015.3,496.4,1015.4,508.7,1015.4,521.1z M975.3,500.4C975.3,500.4,975.3,500.4,975.3,500.4c0,1.8,0,3.7,0,5.5
			c0,15.3,0,15.2,15.3,14.7c3-0.1,4.1-1,4.1-4c-0.2-7.5,0-15,0-22.5c0-15,0-14.9-15.3-14.3c-3,0.1-4.2,1.1-4.1,4.1
			C975.5,489.4,975.3,494.9,975.3,500.4z"/>
		<path d="M835,521.3c0,5.2,0,9.7,0,14.1c0,6.7,0,6.7-6.5,6.7c-3.2,0-6.3,0.1-9.5,0c-3.1-0.2-4.1,1.1-4,4.1c0.1,4.3-0.1,8.7,0,13
			c0.1,2.8-1.1,3.9-3.9,3.8c-3.7-0.1-7.3-0.3-11,0.1c-4.8,0.5-6.3-1.3-6.3-6.1c0.2-27.6,0.1-55.3,0.1-82.9c0-3.8,0.1-7.7,0-11.5
			c-0.1-2.9,1.1-4.1,4.1-4.1c11,0.1,22,0.1,33,0c3.1,0,4.1,1.4,4,4.2c-0.1,4.2,0.1,8.3,0,12.5c-0.1,2.8,1.1,3.9,3.8,3.9
			c4.2-0.1,8.3,0.1,12.5,0c2.7,0,3.8,1.2,3.8,3.9c-0.1,11.5-0.1,23,0,34.5c0,3.1-1.4,4-4.2,3.9C845.9,521.2,840.9,521.3,835,521.3z
			 M815,500c0,5.5,0.1,11,0,16.5c-0.1,2.9,0.8,4.3,4,4.1c3.7-0.2,7.3-0.2,11,0c3,0.1,4.2-1.1,4.1-4.1c-0.1-10.8-0.1-21.6-0.1-32.5
			c0-2.9-0.9-4.4-4-4.2c-3.7,0.1-7.3,0.1-11,0c-3-0.1-4.1,1.2-4,4.2C815.1,489.4,815,494.7,815,500z"/>
		<path d="M874.9,458.5c5.7,0,11,0.1,16.3,0c3.1-0.1,4,1.3,4,4.2c-0.1,8.2,0,16.3,0,24.5c0,16,0,32,0,48c0,6.4,0,6.4,6.6,6.4
			c9.7,0,19.3,0.1,29-0.1c3.5-0.1,4.8,1.2,4.5,4.6c-0.4,5.4-0.6,10.8-0.9,16.2c-5.1,0.2-10.2,0.6-15.3,0.7c-13.3,0.1-26.6,0-40,0.1
			c-2.8,0-4.7-0.1-4.7-3.9c0.1-32.5,0.1-65,0.1-97.4C874.5,460.9,874.7,460.1,874.9,458.5z"/>
		<path d="M1154.8,439c-6.3,0-12.5,0-19.1,0c0-7.4,0-14.1,0-20.9c6.5,0,12.6,0,19,0c0,7.1,0,14.1,0,21.1
			C1154.7,439.2,1154.8,439,1154.8,439z"/>
		<path d="M734.9,438.1c2.1,0,3.9,0,5.7,0c4.3,0,8.6,0,13.3,0c0,6.8,0,13.2,0,20.1c-6.2,0-12.4,0-19,0
			C734.9,451.7,734.9,445.3,734.9,438.1z"/>
		<path class="st0" d="M975.3,500.4c0-5.5,0.1-11,0-16.5c-0.1-3,1.1-4,4.1-4.1c15.3-0.6,15.3-0.7,15.3,14.3c0,7.5-0.1,15,0,22.5
			c0.1,3.1-1.1,3.9-4.1,4c-15.3,0.5-15.3,0.6-15.3-14.7C975.3,504.1,975.3,502.3,975.3,500.4C975.3,500.4,975.3,500.4,975.3,500.4z"
			/>
		<path class="st0" d="M815,500c0-5.3,0.1-10.7,0-16c-0.1-3,1-4.3,4-4.2c3.7,0.1,7.3,0.1,11,0c3.1-0.1,4,1.4,4,4.2
			c0,10.8,0,21.6,0.1,32.5c0,3-1.1,4.2-4.1,4.1c-3.7-0.2-7.3-0.2-11,0c-3.1,0.2-4-1.2-4-4.1C815.1,511,815,505.5,815,500z"/>
	</g>
</g>
</svg>
